<?xml version="1.0" encoding="UTF-8"?>
<svg xmlns="http://www.w3.org/2000/svg" xmlns:xlink="http://www.w3.org/1999/xlink" width="250px" height="257px" viewBox="0 0 250 256" version="1.1">
<g id="surface1">
<path style="fill-rule:nonzero;fill:rgb(55.686277%,82.745099%,94.901961%);fill-opacity:1;stroke-width:7;stroke-linecap:butt;stroke-linejoin:miter;stroke:rgb(31.37255%,31.37255%,31.37255%);stroke-opacity:1;stroke-miterlimit:4;" d="M 1814.624625 2266.312805 C 2066.268188 1990.807434 2470.118063 1444.505585 2072.123625 1463.306015 C 1574.621813 1486.815338 -10.904438 1196.831879 4.102313 1593.819656 C 454.620375 1890.163635 1447.415063 2439.522751 1814.624625 2266.312805 Z M 1814.624625 2266.312805 " transform="matrix(0.111408,0,0,0.111159,0,0)"/>
<path style=" stroke:none;fill-rule:nonzero;fill:rgb(100%,64.313728%,64.313728%);fill-opacity:1;" d="M 140.84375 79.902344 C 137.558594 115.140625 168.917969 115.472656 172.875 117.753906 C 199.835938 116.152344 194.449219 111.527344 203.234375 93.40625 C 213.148438 72.953125 201.226562 45.664062 184.40625 56.835938 C 193.316406 36.773438 143.472656 51.710938 140.84375 79.902344 Z M 140.84375 79.902344 "/>
<path style=" stroke:none;fill-rule:nonzero;fill:rgb(100%,64.313728%,64.313728%);fill-opacity:1;" d="M 93.664062 111.136719 C 89.707031 108.859375 54.980469 108.214844 61.632812 73.289062 C 66.929688 45.472656 114.105469 30.15625 105.195312 50.222656 C 122.015625 39.050781 146.113281 63.75 130.90625 73.289062 C 105.195312 79.902344 120.625 109.535156 93.664062 111.136719 Z M 93.664062 111.136719 "/>
<path style=" stroke:none;fill-rule:evenodd;fill:rgb(56.078434%,70.19608%,50.980395%);fill-opacity:1;" d="M 68.539062 160.214844 C 46.984375 133.445312 17.203125 69.03125 70.546875 25.546875 C 123.886719 -17.941406 179.484375 4.796875 200.613281 21.597656 C 221.746094 50.242188 255.816406 114.640625 223.0625 143.097656 C 201.152344 166.699219 139.574219 203.167969 68.539062 160.214844 Z M 61.632812 73.289062 C 54.980469 108.214844 89.707031 108.859375 93.664062 111.136719 C 120.625 109.535156 105.195312 79.902344 130.90625 73.289062 C 146.113281 63.75 122.015625 39.050781 105.195312 50.222656 C 114.105469 30.15625 66.929688 45.472656 61.632812 73.289062 Z M 140.84375 79.902344 C 137.558594 115.140625 168.917969 115.472656 172.875 117.753906 C 199.835938 116.152344 194.449219 111.527344 203.234375 93.40625 C 213.148438 72.953125 201.226562 45.664062 184.40625 56.835938 C 193.316406 36.773438 143.472656 51.710938 140.84375 79.902344 Z M 140.84375 79.902344 "/>
<path style="fill:none;stroke-width:7;stroke-linecap:butt;stroke-linejoin:miter;stroke:rgb(31.37255%,31.37255%,31.37255%);stroke-opacity:1;stroke-miterlimit:4;" d="M 1264.2135 718.808975 C 1234.725938 1035.815857 1516.207688 1038.802841 1551.726 1059.32518 C 1793.727375 1044.917374 1745.376188 1003.31044 1824.23175 840.291382 C 1913.220375 656.293152 1806.209625 410.798187 1655.2305 511.301422 C 1735.208063 330.817291 1287.810563 465.196442 1264.2135 718.808975 Z M 1264.2135 718.808975 " transform="matrix(0.111408,0,0,0.111159,0,0)"/>
<path style="fill:none;stroke-width:7;stroke-linecap:butt;stroke-linejoin:miter;stroke:rgb(31.37255%,31.37255%,31.37255%);stroke-opacity:1;stroke-miterlimit:4;" d="M 840.728625 999.796341 C 805.210313 979.309143 493.504688 973.51088 553.216125 659.315277 C 600.760875 409.076279 1024.210688 271.288452 944.233125 451.807724 C 1095.21225 351.304489 1311.512813 573.500977 1175.0145 659.315277 C 944.233125 718.808975 1082.73 985.388535 840.728625 999.796341 Z M 840.728625 999.796341 " transform="matrix(0.111408,0,0,0.111159,0,0)"/>
<path style="fill:none;stroke-width:7;stroke-linecap:butt;stroke-linejoin:miter;stroke:rgb(31.37255%,31.37255%,31.37255%);stroke-opacity:1;stroke-miterlimit:4;" d="M 615.206625 1441.307755 C 421.73175 1200.486542 154.41525 621.011597 633.22875 229.822083 C 1112.007188 -161.402573 1611.05175 43.153137 1800.704813 194.29454 C 1990.392938 451.983429 2296.208063 1031.31781 2002.209 1287.319931 C 1805.543438 1499.6418 1252.818188 1827.718094 615.206625 1441.307755 Z M 553.216125 659.315277 C 493.504688 973.51088 805.210313 979.309143 840.728625 999.796341 C 1082.73 985.388535 944.233125 718.808975 1175.0145 659.315277 C 1311.512813 573.500977 1095.21225 351.304489 944.233125 451.807724 C 1024.210688 271.288452 600.760875 409.076279 553.216125 659.315277 Z M 1264.2135 718.808975 C 1234.725938 1035.815857 1516.207688 1038.802841 1551.726 1059.32518 C 1793.727375 1044.917374 1745.376188 1003.31044 1824.23175 840.291382 C 1913.220375 656.293152 1806.209625 410.798187 1655.2305 511.301422 C 1735.208063 330.817291 1287.810563 465.196442 1264.2135 718.808975 Z M 1264.2135 718.808975 " transform="matrix(0.111408,0,0,0.111159,0,0)"/>
<path style=" stroke:none;fill-rule:nonzero;fill:rgb(100%,30.19608%,82.745099%);fill-opacity:1;" d="M 113.917969 65.265625 C 113.878906 65.265625 113.785156 65.261719 113.597656 65.246094 C 113.238281 65.222656 112.632812 65.164062 111.960938 65.175781 C 111.675781 65.179688 111.507812 65.207031 111.199219 65.292969 C 110.890625 65.375 110.449219 65.519531 110.089844 65.617188 C 109.132812 65.875 108.84375 65.757812 108.597656 65.722656 C 108.449219 65.703125 108.472656 66.347656 108.460938 67.0625 C 108.457031 67.371094 108.429688 67.558594 108.40625 68.25 C 108.382812 68.9375 108.359375 70.125 108.339844 70.828125 C 108.316406 71.527344 108.292969 71.703125 108.28125 71.960938 C 108.257812 72.550781 108.238281 73.117188 108.179688 73.625 C 108.113281 74.253906 108.101562 74.832031 108.050781 75.195312 C 107.996094 75.605469 107.933594 76.144531 107.882812 76.691406 C 107.855469 77.015625 107.867188 77.4375 108.277344 77.65625 C 108.6875 77.871094 109.511719 77.871094 109.980469 77.878906 C 110.449219 77.882812 110.539062 77.894531 111.085938 77.898438 C 111.628906 77.90625 112.632812 77.90625 113.195312 77.8125 C 113.761719 77.71875 113.863281 77.527344 113.917969 77.414062 C 114.066406 77.117188 114.066406 76.339844 113.992188 75.910156 C 113.984375 75.859375 113.933594 75.84375 113.898438 75.828125 C 113.507812 75.632812 112.695312 75.832031 112.460938 75.859375 C 112.359375 75.871094 111.746094 75.898438 110.867188 75.910156 C 110.507812 75.914062 110.382812 75.886719 110.191406 75.84375 C 109.664062 75.71875 109.628906 75.296875 109.550781 75.121094 C 109.480469 74.960938 109.371094 74.746094 109.34375 74.542969 C 109.304688 74.277344 109.359375 73.828125 109.445312 73.601562 C 109.476562 73.515625 109.484375 73.421875 109.5 73.332031 C 109.535156 73.148438 109.820312 73.054688 110.183594 72.941406 C 110.757812 72.761719 110.964844 73.050781 111.238281 73.085938 C 111.78125 73.152344 112.265625 73.242188 112.527344 73.269531 C 112.882812 73.308594 113.335938 73.210938 113.5 73.121094 C 113.691406 73.015625 113.785156 72.828125 113.851562 72.628906 C 113.921875 72.421875 113.929688 71.835938 113.894531 71.429688 C 113.875 71.261719 113.808594 71.027344 113.71875 70.734375 C 113.65625 70.535156 113.449219 70.355469 113.285156 70.203125 C 113.140625 70.0625 112.921875 69.992188 112.324219 69.992188 C 111.6875 69.992188 111.304688 70.339844 110.832031 70.574219 C 110.269531 70.855469 109.988281 70.800781 109.730469 70.738281 C 109.207031 70.617188 109.304688 70.140625 109.25 69.984375 C 109.160156 69.738281 109.191406 69.546875 109.191406 68.78125 C 109.191406 68.613281 109.226562 68.570312 109.257812 68.539062 C 109.398438 68.398438 109.761719 68.390625 110.027344 68.359375 C 110.261719 68.328125 110.550781 68.234375 110.785156 68.21875 C 110.96875 68.203125 111.191406 68.167969 111.371094 68.144531 C 111.839844 68.085938 112.582031 68.066406 112.789062 68.019531 C 113.019531 67.972656 113.179688 67.886719 113.402344 67.757812 C 113.714844 67.578125 113.839844 67.195312 113.929688 66.960938 C 113.964844 66.457031 113.941406 65.714844 113.925781 65.34375 C 113.921875 65.3125 113.921875 65.285156 113.917969 65.265625 Z M 113.917969 65.265625 "/>
<path style="fill:none;stroke-width:1;stroke-linecap:round;stroke-linejoin:miter;stroke:rgb(0%,0%,0%);stroke-opacity:1;stroke-miterlimit:4;" d="M 1022.632875 587.135681 C 1022.632875 587.135681 1022.56275 587.135681 1022.527688 587.135681 M 1022.352375 586.222015 C 1022.4225 586.573425 1022.457563 586.819412 1022.527688 587.135681 M 1022.527688 587.135681 C 1022.177063 587.135681 1021.335563 587.10054 1019.652563 586.959976 C 1016.426813 586.74913 1010.992125 586.222015 1004.961375 586.327438 C 1002.401813 586.362579 1000.894125 586.608566 998.124188 587.381668 C 995.35425 588.119629 991.392188 589.419846 988.166438 590.29837 C 979.576125 592.617676 976.9815 591.563446 974.772563 591.247177 C 973.440188 591.071472 973.650563 596.869736 973.545375 603.300537 C 973.510313 606.076675 973.264875 607.763443 973.0545 613.983398 C 972.844125 620.168213 972.63375 630.851074 972.458438 637.176453 C 972.248063 643.46669 972.037688 645.048035 971.9325 647.36734 C 971.722125 652.67363 971.546813 657.769073 971.020875 662.337402 C 970.424813 667.995102 970.319625 673.195969 969.863813 676.464081 C 969.372938 680.153885 968.811938 685.003342 968.356125 689.92308 C 968.110688 692.839783 968.215875 696.63501 971.897438 698.602905 C 975.579 700.53566 982.977188 700.53566 987.184688 700.605942 C 991.392188 700.641083 992.198625 700.746506 997.107375 700.781647 C 1001.981063 700.851929 1010.992125 700.851929 1016.041125 700.008545 C 1021.125188 699.165161 1022.036813 697.443253 1022.527688 696.424164 C 1023.860063 693.753448 1023.860063 686.760391 1023.193875 682.894882 C 1023.12375 682.438049 1022.667938 682.297485 1022.352375 682.156921 C 1018.846125 680.399872 1011.553125 682.192062 1009.449375 682.438049 C 1008.53775 682.543472 1003.032938 682.789459 995.143875 682.894882 C 991.918125 682.930023 990.796125 682.684036 989.078063 682.297485 C 984.344625 681.172974 984.029063 677.377747 983.327813 675.796402 C 982.696688 674.355621 981.714938 672.422867 981.4695 670.595535 C 981.118875 668.205948 981.60975 664.164734 982.381125 662.126556 C 982.661625 661.353455 982.73175 660.510071 982.872 659.701828 C 983.187563 658.050201 985.747125 657.206818 989.007938 656.187729 C 994.162125 654.571243 996.020438 657.171677 998.474813 657.487946 C 1003.3485 658.085342 1007.69625 658.893585 1010.045438 659.139572 C 1013.236125 659.490982 1017.303375 658.612457 1018.776 657.804214 C 1020.494063 656.855408 1021.335563 655.16864 1021.931625 653.37645 C 1022.56275 651.513977 1022.632875 646.242828 1022.317313 642.588165 C 1022.142 641.077103 1021.545938 638.968643 1020.7395 636.333069 C 1020.1785 634.540878 1018.320188 632.924393 1016.847563 631.553894 C 1015.55025 630.288818 1013.58675 629.656281 1008.222188 629.656281 C 1002.507 629.656281 999.070875 632.783829 994.828313 634.892288 C 989.779313 637.42244 987.254813 636.930466 984.940688 636.36821 C 980.242313 635.278839 981.118875 630.991638 980.628 629.585999 C 979.821563 627.372116 980.102063 625.650208 980.102063 618.762573 C 980.102063 617.251511 980.417625 616.86496 980.698125 616.583832 C 981.960375 615.318756 985.221188 615.248474 987.605438 614.967346 C 989.709188 614.686218 992.303813 613.842834 994.407563 613.702271 C 996.0555 613.561707 998.054063 613.245438 999.666938 613.034592 C 1003.874438 612.507477 1010.536313 612.331772 1012.394625 611.91008 C 1014.463313 611.488388 1015.900875 610.715286 1017.899438 609.555634 C 1020.704438 607.939148 1021.826438 604.495331 1022.632875 602.386871 C 1022.948438 597.853683 1022.738063 591.176895 1022.597813 587.838501 C 1022.56275 587.557373 1022.56275 587.311386 1022.527688 587.135681 Z M 1022.527688 587.135681 " transform="matrix(0.111408,0,0,0.111159,0,0)"/>
<path style=" stroke:none;fill-rule:nonzero;fill:rgb(100%,30.19608%,82.745099%);fill-opacity:1;" d="M 194.839844 64.796875 C 194.800781 64.796875 194.707031 64.792969 194.515625 64.777344 C 194.148438 64.753906 193.539062 64.695312 192.859375 64.707031 C 192.570312 64.710938 192.402344 64.738281 192.089844 64.824219 C 191.777344 64.90625 191.328125 65.050781 190.96875 65.148438 C 189.996094 65.410156 189.707031 65.292969 189.457031 65.257812 C 189.304688 65.234375 189.332031 65.882812 189.320312 66.601562 C 189.316406 66.910156 189.285156 67.097656 189.261719 67.789062 C 189.242188 68.484375 189.21875 69.675781 189.195312 70.378906 C 189.171875 71.082031 189.148438 71.257812 189.140625 71.519531 C 189.113281 72.109375 189.09375 72.675781 189.035156 73.1875 C 188.964844 73.816406 188.957031 74.398438 188.90625 74.761719 C 188.847656 75.171875 188.785156 75.714844 188.734375 76.261719 C 188.707031 76.589844 188.71875 77.011719 189.132812 77.230469 C 189.550781 77.449219 190.382812 77.449219 190.855469 77.453125 C 191.332031 77.460938 191.421875 77.46875 191.972656 77.476562 C 192.527344 77.480469 193.539062 77.480469 194.109375 77.386719 C 194.679688 77.292969 194.78125 77.101562 194.839844 76.988281 C 194.992188 76.691406 194.988281 75.914062 194.914062 75.480469 C 194.90625 75.429688 194.855469 75.414062 194.820312 75.394531 C 194.425781 75.199219 193.605469 75.402344 193.367188 75.429688 C 193.261719 75.441406 192.644531 75.46875 191.75 75.480469 C 191.390625 75.484375 191.261719 75.457031 191.070312 75.414062 C 190.535156 75.289062 190.503906 74.863281 190.421875 74.6875 C 190.351562 74.527344 190.242188 74.3125 190.210938 74.109375 C 190.171875 73.839844 190.226562 73.390625 190.3125 73.164062 C 190.347656 73.074219 190.355469 72.984375 190.371094 72.894531 C 190.40625 72.707031 190.695312 72.613281 191.0625 72.5 C 191.644531 72.320312 191.851562 72.613281 192.132812 72.644531 C 192.679688 72.710938 193.167969 72.804688 193.433594 72.832031 C 193.792969 72.871094 194.25 72.769531 194.414062 72.679688 C 194.609375 72.574219 194.703125 72.386719 194.773438 72.1875 C 194.84375 71.980469 194.851562 71.390625 194.8125 70.980469 C 194.796875 70.8125 194.726562 70.578125 194.636719 70.285156 C 194.574219 70.085938 194.367188 69.902344 194.199219 69.75 C 194.050781 69.613281 193.832031 69.542969 193.226562 69.542969 C 192.582031 69.539062 192.195312 69.890625 191.71875 70.125 C 191.148438 70.40625 190.867188 70.351562 190.605469 70.289062 C 190.074219 70.167969 190.171875 69.6875 190.117188 69.53125 C 190.027344 69.285156 190.058594 69.09375 190.058594 68.324219 C 190.058594 68.160156 190.09375 68.113281 190.128906 68.082031 C 190.265625 67.941406 190.636719 67.933594 190.90625 67.898438 C 191.140625 67.871094 191.429688 67.777344 191.671875 67.757812 C 191.855469 67.746094 192.078125 67.707031 192.261719 67.6875 C 192.734375 67.628906 193.488281 67.609375 193.699219 67.5625 C 193.929688 67.511719 194.089844 67.429688 194.316406 67.300781 C 194.636719 67.117188 194.761719 66.734375 194.851562 66.5 C 194.886719 65.992188 194.863281 65.246094 194.847656 64.875 C 194.84375 64.84375 194.84375 64.820312 194.839844 64.796875 Z M 194.839844 64.796875 "/>
<path style="fill:none;stroke-width:1;stroke-linecap:round;stroke-linejoin:miter;stroke:rgb(0%,0%,0%);stroke-opacity:1;stroke-miterlimit:4;" d="M 1748.987625 582.918762 C 1748.952563 582.918762 1748.9175 582.918762 1748.882438 582.918762 M 1748.707125 582.005096 C 1748.77725 582.356506 1748.812313 582.602493 1748.882438 582.918762 M 1748.882438 582.918762 C 1748.531813 582.918762 1747.690313 582.883621 1745.97225 582.743057 C 1742.676375 582.532211 1737.206625 582.005096 1731.10575 582.110519 C 1728.511125 582.14566 1727.003438 582.391647 1724.198438 583.164749 C 1721.393438 583.90271 1717.36125 585.202927 1714.1355 586.081451 C 1705.404938 588.435898 1702.810313 587.381668 1700.566313 587.065399 C 1699.198875 586.854553 1699.444313 592.687958 1699.339125 599.1539 C 1699.304063 601.930038 1699.023563 603.616806 1698.813188 609.836761 C 1698.637875 616.091858 1698.4275 626.80986 1698.217125 633.135239 C 1698.00675 639.460617 1697.796375 641.041962 1697.72625 643.396408 C 1697.480813 648.702698 1697.3055 653.798141 1696.779563 658.401611 C 1696.148438 664.059311 1696.078313 669.295319 1695.6225 672.563431 C 1695.096563 676.253235 1694.535563 681.137833 1694.07975 686.057571 C 1693.834313 689.009415 1693.9395 692.804642 1697.656125 694.772537 C 1701.407813 696.740433 1708.876125 696.740433 1713.118688 696.775574 C 1717.396313 696.845856 1718.20275 696.916138 1723.146563 696.98642 C 1728.125438 697.021561 1737.206625 697.021561 1742.32575 696.178177 C 1747.444875 695.334793 1748.3565 693.612885 1748.882438 692.593796 C 1750.249875 689.92308 1750.214813 682.930023 1749.548625 679.029373 C 1749.4785 678.57254 1749.022688 678.431976 1748.707125 678.256271 C 1745.165813 676.499222 1737.802688 678.326553 1735.663875 678.57254 C 1734.717188 678.677963 1729.177313 678.92395 1721.148 679.029373 C 1717.92225 679.064514 1716.765188 678.818527 1715.047125 678.431976 C 1710.243563 677.307465 1709.963063 673.477097 1709.22675 671.895752 C 1708.595625 670.454971 1707.613875 668.522217 1707.333375 666.694885 C 1706.98275 664.270157 1707.473625 660.228943 1708.245 658.190765 C 1708.560563 657.382523 1708.630688 656.57428 1708.770938 655.766037 C 1709.0865 654.079269 1711.681125 653.235886 1714.977 652.216797 C 1720.201313 650.600311 1722.059625 653.235886 1724.584125 653.517014 C 1729.492875 654.11441 1733.875688 654.957794 1736.259938 655.203781 C 1739.485688 655.555191 1743.588 654.641525 1745.060625 653.833282 C 1746.81375 652.884476 1747.65525 651.197708 1748.286375 649.405518 C 1748.9175 647.543045 1748.987625 642.236755 1748.637 638.546951 C 1748.49675 637.035889 1747.865625 634.927429 1747.059188 632.291855 C 1746.498188 630.499664 1744.639875 628.848038 1743.132188 627.477539 C 1741.799813 626.247604 1739.836313 625.615067 1734.401625 625.615067 C 1728.616313 625.579926 1725.145125 628.742615 1720.8675 630.851074 C 1715.748375 633.381226 1713.223875 632.889252 1710.874688 632.326996 C 1706.106188 631.237625 1706.98275 626.915283 1706.491875 625.509644 C 1705.685438 623.295761 1705.965938 621.573853 1705.965938 614.651077 C 1705.965938 613.175156 1706.2815 612.753464 1706.597063 612.472336 C 1707.82425 611.20726 1711.155188 611.136978 1713.5745 610.820709 C 1715.67825 610.574722 1718.272875 609.731339 1720.44675 609.555634 C 1722.094688 609.450211 1724.09325 609.098801 1725.741188 608.923096 C 1729.98375 608.395981 1736.750813 608.220276 1738.644188 607.798584 C 1740.712875 607.341751 1742.150438 606.60379 1744.184063 605.444138 C 1747.059188 603.792511 1748.181188 600.348694 1748.987625 598.240234 C 1749.303188 593.671906 1749.092813 586.959976 1748.952563 583.621582 C 1748.9175 583.340454 1748.9175 583.129608 1748.882438 582.918762 Z M 1748.882438 582.918762 " transform="matrix(0.111408,0,0,0.111159,0,0)"/>
<path style=" stroke:none;fill-rule:nonzero;fill:rgb(28.627452%,54.901963%,100%);fill-opacity:1;" d="M 94.925781 64.1875 C 94.984375 64.46875 95.140625 64.960938 95.269531 65.320312 C 95.375 65.613281 95.5 66.070312 95.722656 66.675781 C 96 67.425781 96.183594 67.941406 96.257812 68.121094 C 96.328125 68.289062 96.351562 68.46875 96.433594 68.628906 C 96.511719 68.792969 96.65625 69.226562 96.898438 69.847656 C 97.09375 70.351562 97.117188 70.710938 97.195312 71.050781 C 97.335938 71.660156 97.351562 72.199219 97.363281 72.445312 C 97.378906 72.777344 97.441406 73.128906 97.523438 73.679688 C 97.550781 73.871094 97.601562 73.992188 97.628906 74.105469 C 97.65625 74.21875 97.746094 74.675781 97.859375 75.375 C 97.976562 76.113281 98.070312 76.351562 98.148438 76.554688 L 98.152344 76.558594 C 98.214844 76.730469 98.242188 76.917969 98.308594 77.066406 C 98.445312 77.363281 99.027344 76.335938 99.390625 76.007812 C 99.605469 75.8125 99.851562 75.511719 100.105469 75.203125 C 100.359375 74.894531 100.605469 74.574219 101.160156 73.769531 C 101.714844 72.964844 102.570312 71.6875 103.054688 70.988281 C 103.613281 70.183594 103.753906 70.003906 103.933594 69.65625 C 104.28125 68.972656 104.652344 68.527344 104.765625 68.382812 C 104.890625 68.222656 105.011719 68.023438 105.273438 67.664062 C 105.460938 67.410156 105.75 67 105.964844 66.660156 C 106.515625 65.792969 106.539062 65.613281 106.652344 65.496094 C 106.851562 65.285156 106.910156 65.007812 107.058594 64.851562 C 107.089844 64.816406 107.125 64.773438 107.125 64.734375 C 107.125 64.691406 107.09375 64.660156 107.035156 64.636719 C 106.699219 64.5 106.226562 64.570312 105.945312 64.476562 C 105.855469 64.441406 105.734375 64.378906 105.636719 64.351562 C 105.542969 64.324219 105.476562 64.324219 105.386719 64.445312 C 105.136719 64.78125 105.035156 65.171875 104.945312 65.40625 C 104.84375 65.679688 104.644531 66.023438 104.492188 66.421875 C 104.382812 66.714844 104.273438 67.054688 104.128906 67.414062 C 103.960938 67.824219 103.789062 68.230469 103.5 68.660156 C 103.160156 69.152344 102.824219 69.535156 102.695312 69.730469 C 102.546875 69.953125 102.253906 70.226562 101.992188 70.496094 C 101.867188 70.628906 101.757812 70.765625 101.253906 71.4375 C 100.988281 71.789062 100.847656 72.03125 100.710938 72.316406 C 100.582031 72.59375 100.410156 72.792969 100.285156 73 C 100.191406 73.164062 100.070312 73.367188 99.976562 73.488281 C 99.953125 73.519531 99.914062 73.523438 99.859375 73.519531 C 99.722656 73.503906 99.46875 73.132812 99.152344 72.464844 C 99 72.132812 98.925781 71.792969 98.820312 71.460938 C 98.714844 71.128906 98.589844 70.808594 98.523438 70.597656 C 98.453125 70.386719 98.441406 70.296875 98.304688 69.730469 C 98.164062 69.164062 97.898438 68.121094 97.761719 67.527344 C 97.558594 66.664062 97.566406 66.296875 97.5 66 C 97.441406 65.75 97.363281 65.480469 97.34375 65.140625 C 97.320312 64.808594 97.175781 64.457031 97.117188 64.226562 C 97.09375 64.132812 97.0625 64.042969 97.011719 63.964844 C 96.886719 63.769531 96.476562 63.90625 96.28125 63.980469 C 96.097656 64.046875 95.917969 64.109375 95.765625 64.183594 C 95.679688 64.210938 95.589844 64.234375 95.460938 64.25 C 95.378906 64.253906 95.121094 64.15625 94.925781 64.1875 Z M 94.925781 64.1875 "/>
<path style="fill:none;stroke-width:1;stroke-linecap:round;stroke-linejoin:miter;stroke:rgb(0%,0%,0%);stroke-opacity:1;stroke-miterlimit:4;" d="M 881.015438 688.728287 C 881.576438 690.27449 881.821875 691.961258 882.417938 693.296616 C 883.645125 695.967331 888.869438 686.72525 892.13025 683.773407 C 894.058688 682.016357 896.267625 679.310501 898.546688 676.534363 C 900.82575 673.758224 903.034688 670.876663 908.013563 663.637619 C 912.992438 656.398575 920.671125 644.907471 925.018875 638.617233 C 930.032813 631.378189 931.295063 629.761703 932.907938 626.634155 C 936.0285 620.484482 939.359438 616.478409 940.37625 615.178192 C 941.49825 613.737411 942.585188 611.945221 944.934375 608.71225 C 946.617375 606.428085 949.212 602.738281 951.140438 599.681015 C 956.08425 591.879715 956.294625 590.263229 957.311438 589.209 C 959.099625 587.311386 959.625563 584.816376 960.957938 583.410736 C 961.238438 583.094467 961.554 582.707916 961.554 582.356506 C 961.554 581.969955 961.2735 581.688828 960.747563 581.477982 C 957.732188 580.248047 953.489625 580.880585 950.965125 580.037201 C 950.158688 579.720932 949.07175 579.158676 948.195188 578.912689 C 947.353688 578.666702 946.757625 578.666702 945.951188 579.756073 C 943.707188 582.778198 942.795563 586.292297 941.989125 588.400757 C 941.0775 590.860626 939.289313 593.953033 937.921875 597.537415 C 936.940125 600.172989 935.958375 603.230255 934.661063 606.463226 C 933.153375 610.15303 931.610625 613.807693 929.016 617.673203 C 925.965563 622.100967 922.950188 625.544785 921.793125 627.301834 C 920.46075 629.304871 917.831063 631.76474 915.481875 634.189468 C 914.359875 635.384262 913.378125 636.614197 908.855063 642.658447 C 906.470813 645.821136 905.208563 647.999878 903.981375 650.56517 C 902.824313 653.060181 901.281563 654.852371 900.159563 656.714844 C 899.318063 658.190765 898.231125 660.018097 897.389625 661.107468 C 897.17925 661.388596 896.828625 661.423737 896.33775 661.388596 C 895.110563 661.248032 892.8315 657.909637 889.991438 651.900528 C 888.624 648.913544 887.957813 645.856277 887.011125 642.869293 C 886.064438 639.882309 884.942438 637.000748 884.346375 635.103134 C 883.71525 633.205521 883.610063 632.397278 882.382875 627.301834 C 881.120625 622.20639 878.736375 612.823746 877.509188 607.482315 C 875.685938 599.716156 875.756063 596.412903 875.16 593.742188 C 874.634063 591.493164 873.932813 589.068436 873.7575 586.011169 C 873.547125 583.024185 872.249813 579.861496 871.723875 577.788177 C 871.5135 576.944794 871.233 576.136551 870.777188 575.433731 C 869.655188 573.676682 865.973625 574.906616 864.2205 575.574295 C 862.572563 576.171692 860.959688 576.733948 859.59225 577.401627 C 858.820875 577.647614 858.014438 577.858459 856.857375 577.999023 C 856.121063 578.034164 853.806938 577.15564 852.053813 577.436768 C 852.57975 579.966919 853.98225 584.394684 855.139313 587.627655 C 856.086 590.263229 857.208 594.374725 859.206563 599.821579 C 861.696 606.568649 863.343938 611.20726 864.010125 612.823746 C 864.64125 614.334808 864.851625 615.951294 865.587938 617.392075 C 866.289188 618.867996 867.5865 622.768646 869.760375 628.356064 C 871.5135 632.889252 871.723875 636.122223 872.425125 639.179489 C 873.687375 644.661484 873.827625 649.510941 873.932813 651.724823 C 874.073063 654.711807 874.634063 657.874496 875.370375 662.829376 C 875.615813 664.551285 876.071625 665.640656 876.317063 666.659744 C 876.5625 667.678833 877.368938 671.790329 878.38575 678.080566 C 879.437625 684.722214 880.279125 686.865814 880.980375 688.693146 M 881.015438 688.728287 L 880.980375 688.693146 M 881.015438 688.728287 C 880.980375 688.728287 880.980375 688.693146 880.980375 688.693146 " transform="matrix(0.111408,0,0,0.111159,0,0)"/>
<path style=" stroke:none;fill-rule:nonzero;fill:rgb(28.627452%,54.901963%,100%);fill-opacity:1;" d="M 173.683594 65.019531 C 173.742188 65.296875 173.898438 65.789062 174.027344 66.148438 C 174.132812 66.441406 174.257812 66.898438 174.480469 67.507812 C 174.757812 68.257812 174.941406 68.773438 175.015625 68.949219 C 175.085938 69.121094 175.113281 69.296875 175.1875 69.460938 C 175.269531 69.625 175.414062 70.058594 175.65625 70.679688 C 175.851562 71.183594 175.875 71.539062 175.953125 71.878906 C 176.09375 72.488281 176.113281 73.03125 176.121094 73.277344 C 176.136719 73.605469 176.199219 73.960938 176.28125 74.507812 C 176.308594 74.703125 176.359375 74.824219 176.386719 74.933594 C 176.414062 75.050781 176.503906 75.503906 176.617188 76.203125 C 176.734375 76.941406 176.828125 77.183594 176.90625 77.382812 L 176.910156 77.390625 C 176.972656 77.558594 177 77.75 177.066406 77.894531 C 177.203125 78.195312 177.78125 77.167969 178.148438 76.839844 C 178.363281 76.640625 178.609375 76.34375 178.863281 76.035156 C 179.117188 75.722656 179.363281 75.402344 179.917969 74.597656 C 180.472656 73.792969 181.328125 72.519531 181.8125 71.816406 C 182.371094 71.011719 182.511719 70.835938 182.691406 70.484375 C 183.039062 69.804688 183.410156 69.355469 183.523438 69.210938 C 183.644531 69.050781 183.769531 68.851562 184.03125 68.496094 C 184.21875 68.242188 184.507812 67.828125 184.722656 67.488281 C 185.273438 66.625 185.296875 66.441406 185.410156 66.324219 C 185.613281 66.113281 185.667969 65.835938 185.816406 65.679688 C 185.847656 65.644531 185.882812 65.601562 185.882812 65.5625 C 185.882812 65.523438 185.851562 65.488281 185.792969 65.464844 C 185.460938 65.332031 184.988281 65.398438 184.703125 65.304688 C 184.613281 65.273438 184.492188 65.210938 184.394531 65.179688 C 184.300781 65.152344 184.234375 65.152344 184.144531 65.273438 C 183.894531 65.609375 183.792969 66.003906 183.703125 66.238281 C 183.601562 66.507812 183.402344 66.855469 183.25 67.25 C 183.140625 67.542969 183.03125 67.886719 182.886719 68.242188 C 182.71875 68.65625 182.546875 69.0625 182.257812 69.488281 C 181.917969 69.980469 181.582031 70.363281 181.453125 70.558594 C 181.304688 70.785156 181.011719 71.054688 180.75 71.328125 C 180.625 71.460938 180.515625 71.59375 180.011719 72.265625 C 179.746094 72.621094 179.605469 72.859375 179.46875 73.148438 C 179.339844 73.421875 179.167969 73.625 179.042969 73.832031 C 178.949219 73.992188 178.832031 74.195312 178.734375 74.320312 C 178.710938 74.347656 178.671875 74.351562 178.617188 74.347656 C 178.480469 74.335938 178.226562 73.964844 177.910156 73.292969 C 177.757812 72.964844 177.6875 72.621094 177.578125 72.289062 C 177.472656 71.957031 177.347656 71.636719 177.28125 71.425781 C 177.210938 71.214844 177.203125 71.128906 177.0625 70.558594 C 176.921875 69.992188 176.65625 68.949219 176.519531 68.359375 C 176.316406 67.496094 176.324219 67.128906 176.257812 66.828125 C 176.199219 66.578125 176.121094 66.308594 176.101562 65.972656 C 176.078125 65.636719 175.933594 65.289062 175.875 65.058594 C 175.851562 64.964844 175.820312 64.871094 175.769531 64.792969 C 175.644531 64.597656 175.234375 64.738281 175.039062 64.808594 C 174.855469 64.878906 174.675781 64.9375 174.523438 65.011719 C 174.4375 65.039062 174.347656 65.0625 174.21875 65.078125 C 174.136719 65.085938 173.878906 64.984375 173.683594 65.019531 Z M 173.683594 65.019531 "/>
<path style="fill:none;stroke-width:1;stroke-linecap:round;stroke-linejoin:miter;stroke:rgb(0%,0%,0%);stroke-opacity:1;stroke-miterlimit:4;" d="M 1587.945563 696.213318 C 1588.506563 697.72438 1588.752 699.446289 1589.348063 700.746506 C 1590.57525 703.452362 1595.7645 694.210281 1599.060375 691.258438 C 1600.988813 689.466248 1603.19775 686.795532 1605.476813 684.019394 C 1607.755875 681.208115 1609.964813 678.326553 1614.943688 671.087509 C 1619.922563 663.848465 1627.60125 652.392502 1631.949 646.067123 C 1636.962938 638.828079 1638.225188 637.246735 1639.838063 634.084045 C 1642.958625 627.969513 1646.289563 623.928299 1647.306375 622.628082 C 1648.393313 621.187302 1649.515313 619.395111 1651.8645 616.197281 C 1653.5475 613.913116 1656.142125 610.188171 1658.070563 607.130905 C 1663.014375 599.364746 1663.22475 597.71312 1664.241563 596.65889 C 1666.064813 594.761276 1666.555688 592.266266 1667.888063 590.860626 C 1668.168563 590.544357 1668.484125 590.157806 1668.484125 589.806396 C 1668.484125 589.454987 1668.203625 589.138718 1667.677688 588.927872 C 1664.697375 587.733078 1660.454813 588.330475 1657.89525 587.487091 C 1657.088813 587.205963 1656.001875 586.643707 1655.125313 586.362579 C 1654.283813 586.116592 1653.68775 586.116592 1652.881313 587.205963 C 1650.637313 590.228088 1649.725688 593.777328 1648.91925 595.885788 C 1648.007625 598.310516 1646.219438 601.438065 1644.852 604.987305 C 1643.87025 607.622879 1642.8885 610.715286 1641.591188 613.913116 C 1640.0835 617.638062 1638.54075 621.292725 1635.946125 625.123093 C 1632.895688 629.550858 1629.880313 632.994675 1628.72325 634.751724 C 1627.390875 636.789902 1624.761188 639.21463 1622.412 641.6745 C 1621.29 642.869293 1620.30825 644.064087 1615.785188 650.108337 C 1613.400938 653.306168 1612.138688 655.449768 1610.9115 658.050201 C 1609.754438 660.510071 1608.211688 662.337402 1607.089688 664.199875 C 1606.248188 665.640656 1605.196313 667.467987 1604.31975 668.592499 C 1604.109375 668.838486 1603.75875 668.873627 1603.267875 668.838486 C 1602.040688 668.733063 1599.761625 665.394669 1596.921563 659.350418 C 1595.554125 656.398575 1594.923 653.306168 1593.94125 650.319183 C 1592.994563 647.332199 1591.872563 644.450638 1591.2765 642.553024 C 1590.645375 640.655411 1590.57525 639.882309 1589.313 634.751724 C 1588.05075 629.656281 1585.6665 620.273636 1584.439313 614.967346 C 1582.616063 607.201187 1582.686188 603.897934 1582.090125 601.192078 C 1581.564188 598.943054 1580.862938 596.518326 1580.687625 593.496201 C 1580.47725 590.474075 1579.179938 587.346527 1578.654 585.273209 C 1578.443625 584.429825 1578.163125 583.586441 1577.707313 582.883621 C 1576.585313 581.126572 1572.90375 582.391647 1571.150625 583.024185 C 1569.502688 583.656723 1567.889813 584.183838 1566.522375 584.851517 C 1565.751 585.097504 1564.944563 585.30835 1563.7875 585.448914 C 1563.051188 585.519196 1560.737063 584.60553 1558.983938 584.921799 C 1559.509875 587.416809 1560.912375 591.844574 1562.069438 595.077545 C 1563.016125 597.71312 1564.138125 601.824615 1566.136688 607.30661 C 1568.626125 614.05368 1570.274063 618.692291 1570.94025 620.273636 C 1571.571375 621.819839 1571.816813 623.401184 1572.483 624.877106 C 1573.219313 626.353027 1574.516625 630.253677 1576.6905 635.841095 C 1578.443625 640.374283 1578.654 643.572113 1579.35525 646.629379 C 1580.6175 652.111374 1580.792813 656.995972 1580.862938 659.209854 C 1581.003188 662.161697 1581.564188 665.359528 1582.3005 670.279266 C 1582.545938 672.036316 1583.00175 673.125687 1583.247188 674.109634 C 1583.492625 675.163864 1584.299063 679.240219 1585.315875 685.530457 C 1586.36775 692.172104 1587.20925 694.350845 1587.9105 696.143036 M 1587.945563 696.213318 L 1587.9105 696.143036 M 1587.945563 696.213318 C 1587.9105 696.178177 1587.9105 696.178177 1587.9105 696.143036 " transform="matrix(0.111408,0,0,0.111159,0,0)"/>
<path style=" stroke:none;fill-rule:nonzero;fill:rgb(44.705883%,97.254902%,100%);fill-opacity:1;" d="M 85.867188 74.808594 C 85.730469 74.558594 85.621094 74.367188 85.460938 74.085938 C 85.460938 74.035156 85.460938 73.988281 85.457031 73.953125 C 85.441406 73.859375 85.429688 73.597656 85.398438 73.152344 C 85.394531 72.394531 85.371094 71.863281 85.367188 71.722656 C 85.359375 71.480469 85.339844 71.246094 85.339844 70.609375 C 85.339844 70.0625 85.351562 69.085938 85.402344 68.292969 C 85.453125 67.503906 85.542969 66.914062 85.585938 66.59375 C 85.628906 66.269531 85.625 66.210938 85.734375 65.964844 C 86.035156 65.28125 86.230469 64.753906 86.316406 64.621094 C 86.484375 64.363281 86.613281 64.097656 86.765625 63.929688 C 86.96875 63.703125 87.117188 63.535156 87.402344 63.375 C 87.644531 63.234375 87.933594 63.128906 88.257812 63.140625 C 88.933594 63.15625 89.097656 63.210938 89.316406 63.28125 C 89.574219 63.359375 89.773438 63.453125 89.949219 63.53125 C 90.113281 63.605469 90.238281 63.710938 90.410156 63.792969 C 90.550781 63.863281 90.761719 63.988281 90.894531 64.136719 C 91.054688 64.320312 91.195312 64.433594 91.371094 64.726562 C 91.574219 65.0625 91.714844 65.226562 91.84375 65.78125 C 91.898438 66.03125 91.964844 66.398438 92.003906 67.191406 C 92.042969 67.988281 92.054688 69.175781 92.042969 69.898438 C 92.03125 70.625 92.011719 70.882812 91.941406 71.132812 C 91.808594 71.628906 91.789062 72.121094 91.378906 72.675781 C 91.179688 72.953125 90.890625 73.40625 90.605469 73.707031 C 90.347656 73.984375 90.085938 74.265625 89.679688 74.519531 C 89.335938 74.734375 89.226562 74.859375 89.003906 74.96875 C 88.640625 75.148438 88.109375 75.46875 87.675781 75.464844 C 86.976562 75.460938 86.742188 75.414062 86.546875 75.304688 C 86.300781 75.167969 85.960938 74.984375 85.867188 74.808594 Z M 85.867188 74.808594 "/>
<path style="fill:none;stroke-width:1;stroke-linecap:round;stroke-linejoin:miter;stroke:rgb(0%,0%,0%);stroke-opacity:1;stroke-miterlimit:4;" d="M 766.816875 665.956924 C 768.42975 668.768204 769.4115 670.560394 770.743875 672.985123 C 771.585375 674.566467 774.635813 676.218094 776.84475 677.448029 C 778.597875 678.431976 780.701625 678.853668 786.977813 678.888809 C 790.86975 678.92395 795.63825 676.042389 798.899063 674.425903 C 800.897625 673.441956 801.879375 672.317444 804.964875 670.384689 C 808.611375 668.100525 810.960563 665.570374 813.274688 663.075363 C 815.83425 660.369507 818.428875 656.293152 820.217063 653.798141 C 823.898625 648.808121 824.073938 644.380356 825.266063 639.91745 C 825.897188 637.668427 826.0725 635.349121 826.177688 628.812897 C 826.282875 622.311813 826.177688 611.628952 825.827063 604.46019 C 825.476438 597.326569 824.880375 594.023315 824.3895 591.774292 C 823.232438 586.784271 821.970188 585.30835 820.146938 582.286224 C 818.569125 579.65065 817.306875 578.631561 815.869313 576.979935 C 814.677188 575.644577 812.783813 574.520065 811.521563 573.887527 C 809.978813 573.149567 808.856813 572.20076 807.384188 571.533081 C 805.806375 570.830261 804.018188 569.986877 801.704063 569.284058 C 799.740563 568.65152 798.267938 568.159546 792.202125 568.018982 C 789.291938 567.913559 786.697313 568.862366 784.523438 570.127441 C 781.963875 571.568222 780.6315 573.079285 778.80825 575.117462 C 777.440813 576.628525 776.28375 579.018112 774.776063 581.337418 C 774.004688 582.532211 772.251563 587.276245 769.55175 593.425919 C 768.57 595.639801 768.605063 596.166916 768.219375 599.083618 C 767.833688 601.965179 767.02725 607.271469 766.571438 614.369949 C 766.115625 621.503571 766.010438 630.288818 766.010438 635.208557 C 766.010438 640.936539 766.18575 643.044998 766.255875 645.22374 C 766.290938 646.488815 766.501313 651.26799 766.536375 658.085342 C 766.816875 662.091415 766.922063 664.445862 767.062313 665.289246 C 767.097375 665.851501 767.097375 666.624603 767.097375 667.467987 " transform="matrix(0.111408,0,0,0.111159,0,0)"/>
<path style=" stroke:none;fill-rule:nonzero;fill:rgb(44.705883%,97.254902%,100%);fill-opacity:1;" d="M 164.40625 75.5 C 164.269531 75.25 164.164062 75.0625 164.003906 74.785156 C 164.003906 74.738281 164 74.691406 164 74.65625 C 163.980469 74.5625 163.96875 74.308594 163.941406 73.871094 C 163.9375 73.125 163.914062 72.601562 163.910156 72.464844 C 163.902344 72.226562 163.882812 71.996094 163.882812 71.371094 C 163.882812 70.832031 163.894531 69.871094 163.945312 69.09375 C 163.996094 68.316406 164.085938 67.738281 164.128906 67.421875 C 164.171875 67.105469 164.164062 67.046875 164.273438 66.804688 C 164.578125 66.132812 164.769531 65.613281 164.855469 65.488281 C 165.023438 65.234375 165.152344 64.96875 165.304688 64.804688 C 165.503906 64.582031 165.65625 64.417969 165.9375 64.257812 C 166.175781 64.121094 166.464844 64.019531 166.789062 64.027344 C 167.464844 64.046875 167.628906 64.101562 167.84375 64.167969 C 168.101562 64.242188 168.300781 64.335938 168.476562 64.414062 C 168.636719 64.484375 168.761719 64.589844 168.933594 64.671875 C 169.074219 64.738281 169.28125 64.859375 169.414062 65.007812 C 169.578125 65.191406 169.714844 65.296875 169.890625 65.589844 C 170.09375 65.917969 170.234375 66.078125 170.359375 66.625 C 170.417969 66.871094 170.484375 67.230469 170.523438 68.011719 C 170.5625 68.792969 170.574219 69.960938 170.5625 70.671875 C 170.550781 71.386719 170.527344 71.640625 170.460938 71.886719 C 170.328125 72.375 170.308594 72.855469 169.902344 73.402344 C 169.699219 73.671875 169.410156 74.117188 169.128906 74.414062 C 168.871094 74.6875 168.613281 74.964844 168.207031 75.214844 C 167.863281 75.421875 167.753906 75.546875 167.535156 75.65625 C 167.167969 75.832031 166.644531 76.148438 166.210938 76.144531 C 165.515625 76.136719 165.28125 76.09375 165.082031 75.984375 C 164.839844 75.851562 164.503906 75.671875 164.40625 75.5 Z M 164.40625 75.5 "/>
<path style="fill:none;stroke-width:1;stroke-linecap:round;stroke-linejoin:miter;stroke:rgb(0%,0%,0%);stroke-opacity:1;stroke-miterlimit:4;" d="M 1471.7835 672.282303 C 1473.396375 675.0233 1474.413188 676.815491 1475.7105 679.205078 C 1476.587063 680.751282 1479.602438 682.367767 1481.776313 683.562561 C 1483.5645 684.546509 1485.66825 684.93306 1491.909375 685.003342 C 1495.801313 685.038483 1500.499688 682.192062 1503.795563 680.610718 C 1505.759063 679.62677 1506.740813 678.502258 1509.826313 676.639786 C 1513.472813 674.390762 1515.786938 671.895752 1518.101063 669.435883 C 1520.625563 666.765167 1523.220188 662.759094 1525.043438 660.334366 C 1528.689938 655.414627 1528.86525 651.092285 1530.057375 646.699661 C 1530.653438 644.485779 1530.863813 642.201614 1530.969 635.770813 C 1531.074188 629.375153 1530.969 618.867996 1530.618375 611.839798 C 1530.26775 604.8116 1529.671688 601.578629 1529.14575 599.364746 C 1528.02375 594.445007 1526.7615 593.004227 1524.93825 590.052383 C 1523.360438 587.416809 1522.13325 586.468002 1520.660625 584.816376 C 1519.4685 583.481018 1517.610188 582.391647 1516.347938 581.79425 C 1514.805188 581.05629 1513.683188 580.107483 1512.245625 579.474945 C 1510.667813 578.772125 1508.879625 577.928741 1506.5655 577.261063 C 1504.637063 576.663666 1503.164438 576.171692 1497.098625 575.995987 C 1494.188438 575.925705 1491.593813 576.839371 1489.455 578.069305 C 1486.9305 579.510086 1485.563063 580.986008 1483.774875 582.989044 C 1482.407438 584.464966 1481.250375 586.854553 1479.742688 589.138718 C 1478.971313 590.263229 1477.25325 594.936981 1474.518375 600.981232 C 1473.536625 603.159973 1473.60675 603.687088 1473.221063 606.533508 C 1472.835375 609.379929 1472.028938 614.580795 1471.573125 621.573853 C 1471.117313 628.56691 1471.012125 637.211594 1471.012125 642.06105 C 1471.012125 647.683609 1471.187438 649.756927 1471.257563 651.900528 C 1471.292625 653.130463 1471.503 657.839355 1471.538063 664.551285 C 1471.7835 668.487076 1471.888688 670.77124 1472.064 671.614624 C 1472.099063 672.17688 1472.099063 672.949982 1472.099063 673.758224 " transform="matrix(0.111408,0,0,0.111159,0,0)"/>
<path style="fill-rule:nonzero;fill:rgb(100%,64.313728%,64.313728%);fill-opacity:1;stroke-width:1;stroke-linecap:round;stroke-linejoin:miter;stroke:rgb(0%,0%,0%);stroke-opacity:1;stroke-miterlimit:4;" d="M 784.313063 659.280136 C 783.927375 658.612457 783.752063 658.36647 783.085875 656.679703 C 782.209313 654.500961 781.437938 650.248901 780.806813 647.051071 C 780.280875 644.556061 779.544563 641.920486 779.229 639.91745 C 778.9485 638.371246 778.843313 637.07103 778.597875 630.675369 C 778.352438 624.877106 778.562813 613.877975 778.632938 608.079712 C 778.703063 602.00032 778.843313 601.227219 778.843313 600.243271 C 778.878375 596.869736 781.017188 592.441971 781.648313 590.684921 C 782.595 588.049347 784.839 585.624619 785.329875 585.273209 C 787.012875 584.113556 789.852938 585.870605 791.2905 586.222015 C 792.903375 586.608566 794.937 587.662796 797.777063 588.85759 C 801.037875 590.228088 802.5105 592.195984 804.158438 594.023315 C 807.243938 597.431992 808.82175 601.297501 810.539813 604.425049 C 811.416375 606.076675 812.117625 609.379929 812.994188 614.967346 C 813.485063 618.200317 813.45 622.276672 813.45 624.877106 C 813.485063 629.867126 813.064313 631.06192 812.959125 632.326996 C 812.853938 633.838058 812.398125 636.895325 811.696875 638.86322 C 811.100813 640.585129 810.013875 642.377319 809.137313 643.747818 C 808.085438 645.364304 805.3155 646.734802 803.842875 647.894455 C 802.019625 649.370377 801.3885 650.811157 800.231438 652.251938 C 799.00425 653.763 797.04075 654.957794 795.673313 655.836319 C 794.586375 656.503998 793.779938 657.487946 792.728063 658.155624 C 791.816438 658.788162 790.30875 658.963867 788.590688 659.385559 C 787.854375 659.561264 787.22325 659.77211 786.837563 660.12352 C 786.627188 660.299225 786.732375 660.791199 786.627188 661.107468 C 786.486938 661.423737 786.2415 661.599442 785.890875 661.704865 C 785.54025 661.775146 785.1195 661.810287 784.874063 661.388596 C 784.628625 660.966904 784.593563 660.12352 784.313063 659.280136 Z M 784.313063 659.280136 " transform="matrix(0.111408,0,0,0.111159,0,0)"/>
<path style="fill-rule:nonzero;fill:rgb(100%,64.313728%,64.313728%);fill-opacity:1;stroke-width:1;stroke-linecap:round;stroke-linejoin:miter;stroke:rgb(0%,0%,0%);stroke-opacity:1;stroke-miterlimit:4;" d="M 1489.31475 666.273193 C 1488.929063 665.605515 1488.75375 665.359528 1488.0525 663.67276 C 1487.211 661.494019 1486.439625 657.241959 1485.773438 654.044128 C 1485.282563 651.549118 1484.54625 648.913544 1484.230688 646.910507 C 1483.950188 645.364304 1483.845 644.064087 1483.599563 637.668427 C 1483.354125 631.870163 1483.5645 620.871033 1483.634625 615.072769 C 1483.70475 609.028519 1483.845 608.255417 1483.845 607.271469 C 1483.880063 603.897934 1485.983813 599.435028 1486.65 597.677979 C 1487.596688 595.042404 1489.805625 592.652817 1490.331563 592.266266 C 1492.014563 591.106613 1494.854625 592.898804 1496.292188 593.215073 C 1497.905063 593.601624 1499.938688 594.690994 1502.77875 595.850647 C 1506.039563 597.221146 1507.512188 599.189041 1509.160125 601.016373 C 1512.245625 604.425049 1513.823438 608.290558 1515.5415 611.453247 C 1516.418063 613.069733 1517.119313 616.372986 1517.995875 621.960403 C 1518.48675 625.193375 1518.451688 629.26973 1518.451688 631.870163 C 1518.48675 636.895325 1518.066 638.054977 1517.960813 639.320053 C 1517.855625 640.831116 1517.399813 643.888382 1516.698563 645.856277 C 1516.1025 647.613327 1515.015563 649.370377 1514.139 650.740875 C 1513.087125 652.357361 1510.317188 653.727859 1508.844563 654.887512 C 1507.021313 656.363434 1506.390188 657.804214 1505.233125 659.244995 C 1504.005938 660.756058 1502.042438 661.985992 1500.675 662.829376 C 1499.588063 663.497055 1498.781625 664.481003 1497.72975 665.148682 C 1496.783063 665.781219 1495.310438 665.956924 1493.592375 666.378616 C 1492.856063 666.554321 1492.224938 666.765167 1491.83925 667.116577 C 1491.628875 667.327423 1491.734063 667.784256 1491.628875 668.100525 C 1491.488625 668.416794 1491.243188 668.592499 1490.892563 668.697922 C 1490.541938 668.803345 1490.121188 668.803345 1489.87575 668.381653 C 1489.630313 667.959961 1489.59525 667.116577 1489.31475 666.273193 Z M 1489.31475 666.273193 " transform="matrix(0.111408,0,0,0.111159,0,0)"/>
<path style="fill-rule:nonzero;fill:rgb(55.686277%,100%,47.843137%);fill-opacity:1;stroke-width:1;stroke-linecap:round;stroke-linejoin:miter;stroke:rgb(0%,0%,0%);stroke-opacity:1;stroke-miterlimit:4;" d="M 683.5785 577.015076 C 683.192813 579.088394 682.31625 584.043274 681.579938 587.80336 C 681.159188 589.911819 681.159188 591.844574 680.983875 593.84761 C 680.738438 597.502274 680.247563 600.20813 680.2125 601.156937 C 680.177438 602.281448 680.037188 605.338715 679.967063 609.274506 C 679.932 611.066696 679.546313 613.983398 679.300875 618.481445 C 679.020375 624.279709 678.003563 628.039795 677.793188 630.218536 C 677.723063 630.71051 677.54775 631.132202 677.477625 633.90834 C 677.4075 636.684479 677.4075 641.815063 677.372438 644.626343 C 677.337375 647.753891 677.197125 649.300095 677.162063 651.338272 C 677.127 652.603348 676.951688 657.312241 677.021813 663.883606 C 677.021813 667.151718 677.337375 668.522217 677.512688 669.857574 C 677.758125 671.544342 678.739875 672.071457 679.79175 672.844559 C 680.878688 673.652802 682.737 673.723083 684.209625 673.96907 C 686.313375 674.32048 688.978125 674.566467 690.345563 674.953018 C 691.923375 675.409851 694.027125 675.515274 695.21925 675.72612 C 697.147688 676.07753 700.54875 676.288376 704.019938 676.956055 C 707.00025 677.48317 709.279313 677.166901 711.312938 677.272324 C 715.660688 677.553452 718.78125 677.48317 721.375875 677.799438 C 723.654938 678.080566 727.932563 678.010284 730.351875 677.940002 C 734.278875 677.799438 735.926813 675.199005 737.154 673.96907 C 738.065625 673.055405 738.065625 671.47406 737.960438 670.384689 C 737.820188 669.119614 736.102125 668.733063 734.664563 667.854538 C 733.472438 667.151718 732.140063 666.554321 729.405188 665.81636 C 727.75725 665.394669 725.828813 665.113541 721.831688 664.867554 C 720.639563 664.797272 719.90325 664.656708 719.202 664.621567 C 718.570875 664.586426 714.4335 664.410721 708.367688 664.305298 C 704.721188 664.270157 703.283625 663.707901 701.425313 663.602478 C 699.952688 663.497055 698.935875 663.215927 697.884 663.075363 C 696.586688 662.899658 695.008875 662.688812 691.923375 660.12352 C 690.45075 658.858444 689.574188 657.241959 689.04825 655.906601 C 688.943063 655.625473 688.908 655.344345 688.872938 652.462784 C 688.837875 649.546082 688.837875 643.993805 688.872938 640.936539 C 688.908 636.473633 689.1885 634.751724 689.363813 632.959534 C 689.539125 630.429382 689.854688 629.094025 690.520875 627.407257 C 691.327313 625.333939 691.467563 622.979492 692.203875 619.922226 C 692.764875 617.602921 692.870063 615.283615 693.185625 612.96431 C 693.360938 611.769516 693.290813 610.469299 693.396 607.447174 C 693.501188 605.092728 693.466125 601.051514 693.431063 598.661926 C 693.360938 596.237198 693.290813 595.569519 693.25575 592.547394 C 693.220688 589.490128 693.220688 584.113556 693.150563 581.231995 C 693.080438 577.50705 692.274 576.769089 692.028563 576.347397 C 691.397438 575.293167 690.17025 575.152603 685.96275 575.012039 C 684.1395 574.941757 683.333063 575.574295 682.982438 575.820282 C 682.842188 575.995987 682.772063 576.241974 682.737 576.628525 C 682.666875 577.015076 683.788875 575.995987 683.5785 577.015076 Z M 683.5785 577.015076 " transform="matrix(0.111408,0,0,0.111159,0,0)"/>
<path style="fill:none;stroke-width:2;stroke-linecap:round;stroke-linejoin:miter;stroke:rgb(0%,0%,0%);stroke-opacity:1;stroke-miterlimit:4;" d="M 676.005 561.658463 C 676.005 561.799026 676.075125 562.115295 676.2855 562.361282 C 676.811438 562.99382 676.951688 560.639374 676.951688 560.006836 C 676.951688 559.936554 676.951688 560.323105 676.881563 560.639374 C 676.8465 560.955643 676.776375 561.166489 676.70625 561.412476 " transform="matrix(0.111408,0,0,0.111159,0,0)"/>
<path style="fill:none;stroke-width:2;stroke-linecap:round;stroke-linejoin:miter;stroke:rgb(0%,0%,0%);stroke-opacity:1;stroke-miterlimit:4;" d="M 785.014313 667.046295 C 785.084438 667.046295 785.014313 666.940872 785.014313 667.046295 Z M 785.014313 667.046295 C 785.014313 667.151718 785.084438 667.503128 785.014313 667.995102 " transform="matrix(0.111408,0,0,0.111159,0,0)"/>
<path style="fill-rule:nonzero;fill:rgb(49.411765%,81.960785%,37.64706%);fill-opacity:1;stroke-width:7;stroke-linecap:butt;stroke-linejoin:miter;stroke:rgb(31.37255%,31.37255%,31.37255%);stroke-opacity:1;stroke-miterlimit:4;" d="M 718.50075 1162.991104 C 1050.507563 1359.675232 1698.497625 1644.492966 1634.508563 1210.501724 Z M 718.50075 1162.991104 " transform="matrix(0.111408,0,0,0.111159,0,0)"/>
<path style="fill-rule:nonzero;fill:rgb(55.686277%,100%,47.843137%);fill-opacity:1;stroke-width:1;stroke-linecap:round;stroke-linejoin:miter;stroke:rgb(0%,0%,0%);stroke-opacity:1;stroke-miterlimit:4;" d="M 1377.570563 593.039368 C 1377.184875 595.077545 1376.308313 600.067566 1375.607063 603.792511 C 1375.186313 605.90097 1375.15125 607.833725 1375.011 609.871902 C 1374.7305 613.526566 1374.274688 616.197281 1374.239625 617.146088 C 1374.204563 618.270599 1374.064313 621.363007 1373.959125 625.263657 C 1373.924063 627.090988 1373.538375 629.972549 1373.292938 634.470596 C 1373.0475 640.304001 1371.995625 644.028946 1371.78525 646.242828 C 1371.715125 646.699661 1371.574875 647.121353 1371.469688 649.897491 C 1371.399563 652.708771 1371.399563 657.804214 1371.3645 660.615494 C 1371.329438 663.778183 1371.189188 665.324387 1371.154125 667.327423 C 1371.119063 668.592499 1370.978813 673.301392 1371.013875 679.872757 C 1371.013875 683.17601 1371.329438 684.546509 1371.50475 685.881866 C 1371.750188 687.533493 1372.731938 688.060608 1373.783813 688.83371 C 1374.87075 689.641953 1376.764125 689.712234 1378.23675 689.958221 C 1380.305438 690.344772 1382.970188 690.555618 1384.337625 690.942169 C 1385.9505 691.434143 1388.019188 691.504425 1389.211313 691.750412 C 1391.174813 692.101822 1394.540813 692.277527 1398.012 692.945206 C 1400.992313 693.507462 1403.271375 693.156052 1405.305 693.296616 C 1409.65275 693.577744 1412.773313 693.507462 1415.367938 693.788589 C 1417.647 694.069717 1421.924625 693.999435 1424.343938 693.929153 C 1428.270938 693.788589 1429.918875 691.188156 1431.146063 689.958221 C 1432.057688 689.044556 1432.057688 687.463211 1431.9525 686.408981 C 1431.81225 685.108765 1430.094188 684.722214 1428.656625 683.843689 C 1427.499563 683.140869 1426.132125 682.543472 1423.39725 681.840652 C 1421.784375 681.38382 1419.855938 681.102692 1415.858813 680.891846 C 1414.631625 680.821564 1413.895313 680.645859 1413.194063 680.610718 C 1412.562938 680.575577 1408.425563 680.399872 1402.35975 680.32959 C 1398.71325 680.259308 1397.275688 679.732193 1395.452438 679.591629 C 1393.94475 679.486206 1392.963 679.205078 1391.876063 679.064514 C 1390.613813 678.92395 1389.000938 678.677963 1385.915438 676.112671 C 1384.442813 674.847595 1383.56625 673.266251 1383.075375 671.930893 C 1382.935125 671.649765 1382.900063 671.368637 1382.865 668.451935 C 1382.829938 665.570374 1382.829938 660.018097 1382.865 656.92569 C 1382.935125 652.497925 1383.215625 650.776016 1383.355875 648.948685 C 1383.56625 646.418533 1383.84675 645.083176 1384.512938 643.396408 C 1385.319375 641.32309 1385.459625 638.968643 1386.195938 635.911377 C 1386.756938 633.592072 1386.862125 631.307907 1387.177688 628.953461 C 1387.353 627.793808 1387.282875 626.45845 1387.423125 623.436325 C 1387.49325 621.081879 1387.458188 617.075806 1387.423125 614.651077 C 1387.388063 612.26149 1387.282875 611.55867 1387.282875 608.536545 C 1387.21275 605.479279 1387.21275 600.102707 1387.142625 597.221146 C 1387.0725 593.496201 1386.266063 592.75824 1386.020625 592.336548 C 1385.3895 591.282318 1384.162313 591.141754 1379.954813 591.00119 C 1378.131563 590.930908 1377.325125 591.563446 1376.9745 591.809433 C 1376.83425 591.985138 1376.764125 592.266266 1376.729063 592.652817 C 1376.694 593.039368 1377.780938 591.985138 1377.570563 593.039368 Z M 1377.570563 593.039368 " transform="matrix(0.111408,0,0,0.111159,0,0)"/>
<path style="fill-rule:nonzero;fill:rgb(19.607843%,100%,39.607844%);fill-opacity:1;stroke-width:1;stroke-linecap:butt;stroke-linejoin:miter;stroke:rgb(0%,0%,0%);stroke-opacity:1;stroke-miterlimit:4;" d="M 722.007 1709.011826 L 788.134875 1709.011826 L 788.134875 1442.045715 C 792.167063 1412.808411 816.991313 1354.755493 884.171063 1356.547684 C 916.9545 1350.116882 985.606875 1358.19931 998.019 1442.045715 L 998.019 1709.011826 L 1062.989813 1709.011826 L 1062.989813 1426.056564 C 1060.886063 1397.346375 1042.302938 1333.916885 984.800438 1309.63446 C 927.297938 1285.387177 868.077375 1299.548996 845.637375 1309.63446 C 826.668563 1323.79628 810.645 1333.706039 802.5105 1339.996277 C 791.500875 1348.500397 793.289063 1366.106033 788.134875 1362.627075 L 788.134875 1158.001083 L 776.494125 1147.001953 L 765.4845 1137.513885 L 753.493125 1133.015839 L 736.487813 1133.015839 L 725.51325 1147.001953 L 722.007 1169.000214 Z M 722.007 1709.011826 " transform="matrix(0.111408,0,0,0.111159,0,0)"/>
<path style="fill-rule:nonzero;fill:rgb(100%,99.607843%,70.19608%);fill-opacity:1;stroke-width:1;stroke-linecap:butt;stroke-linejoin:miter;stroke:rgb(0%,0%,0%);stroke-opacity:1;stroke-miterlimit:4;" d="M 333.584625 1617.012711 C 342.280125 1633.107285 367.490063 1670.040466 398.906063 1688.94632 C 424.606875 1701.210526 487.614188 1720.573212 534.142125 1699.94545 C 580.705125 1679.282547 604.021688 1657.214005 617.310375 1636.867371 L 624.989063 1605.029633 L 624.989063 1585.702087 C 611.2095 1560.541138 587.542313 1560.681702 568.363125 1585.702087 C 544.380375 1617.012711 537.227625 1652.153702 473.939813 1652.153702 C 423.309563 1652.153702 392.27925 1607.876053 383.092875 1585.702087 C 375.273938 1560.997971 360.652875 1502.804489 364.720125 1467.663498 C 369.83925 1423.737259 369.27825 1371.65831 446.345625 1334.865692 C 523.413 1298.073074 568.363125 1408.345505 568.363125 1412.175873 C 568.363125 1415.26828 606.125438 1413.476089 624.989063 1412.175873 C 621.588 1386.382385 604.05675 1334.865692 544.380375 1297.967651 C 490.068563 1264.408005 443.295188 1268.976334 370.330125 1313.991943 C 320.295938 1362.205383 306.867 1396.924683 308.059125 1467.663498 C 309.601875 1556.043091 309.286313 1581.871719 333.584625 1617.012711 Z M 333.584625 1617.012711 " transform="matrix(0.111408,0,0,0.111159,0,0)"/>
<path style="fill-rule:nonzero;fill:rgb(0%,0%,0%);fill-opacity:1;stroke-width:1;stroke-linecap:butt;stroke-linejoin:miter;stroke:rgb(0%,0%,0%);stroke-opacity:1;stroke-miterlimit:4;" d="M 686.173125 1139.516922 L 817.166625 1139.516922 C 827.650313 1135.335144 842.376563 1122.08699 817.166625 1102.513458 C 801.002813 1090.17897 770.95425 1049.591125 780.175688 985.985931 L 738.170813 985.985931 C 745.674188 1030.825836 745.744313 1116.886124 686.173125 1102.513458 C 678.494438 1109.68222 667.765313 1127.112152 686.173125 1139.516922 Z M 686.173125 1139.516922 " transform="matrix(0.111408,0,0,0.111159,0,0)"/>
<path style="fill:none;stroke-width:16;stroke-linecap:round;stroke-linejoin:miter;stroke:rgb(100%,100%,100%);stroke-opacity:1;stroke-miterlimit:4;" d="M 685.016063 1112.985474 C 686.173125 1112.985474 688.592438 1113.301743 693.360938 1113.512589 C 697.989188 1113.723434 704.265375 1114.180267 708.68325 1114.426254 C 709.665 1114.461395 710.08575 1114.6371 719.272125 1114.707382 C 728.4585 1114.777664 746.375438 1114.777664 756.08775 1114.883087 C 768.394688 1114.953369 772.532063 1115.831894 778.317375 1116.218445 C 780.175688 1116.323868 783.156 1116.604996 787.047938 1116.675278 C 789.74775 1116.710419 796.865438 1117.026688 806.29725 1117.167252 C 811.06575 1117.272675 812.74875 1118.397186 815.518688 1118.748596 C 816.921188 1118.818878 819.305438 1118.818878 820.743 1118.88916 C 822.180563 1118.994583 822.636375 1119.135147 823.092188 1119.275711 " transform="matrix(0.111408,0,0,0.111159,0,0)"/>
<path style="fill:none;stroke-width:1;stroke-linecap:round;stroke-linejoin:miter;stroke:rgb(100%,100%,100%);stroke-opacity:1;stroke-miterlimit:4;" d="M 741.010875 1017.015427 C 742.4835 1017.015427 744.86775 1017.296555 747.041625 1018.034515 C 748.689563 1018.596771 749.671313 1020.564667 750.863438 1022.532562 C 752.336063 1024.92215 752.967188 1026.854904 753.56325 1029.455338 C 754.12425 1031.950348 754.439813 1036.97551 754.8255 1051.242752 C 755.106 1062.347305 754.895625 1083.959015 754.8255 1095.309555 C 754.755375 1106.660095 754.615125 1107.116928 754.509938 1108.065735 C 754.439813 1109.049683 754.439813 1110.525604 754.439813 1112.036667 " transform="matrix(0.111408,0,0,0.111159,0,0)"/>
<path style="fill:none;stroke-width:1;stroke-linecap:round;stroke-linejoin:miter;stroke:rgb(100%,100%,100%);stroke-opacity:1;stroke-miterlimit:4;" d="M 764.257313 1108.59285 C 764.257313 1107.995453 764.117063 1107.116928 763.906688 1103.110855 C 763.345688 1093.482224 763.38075 1085.013245 762.714563 1081.2883 C 762.188625 1078.47702 762.328875 1076.614548 762.1185 1071.273117 C 761.908125 1066.564224 762.048375 1057.673553 762.1185 1052.788956 C 762.25875 1043.757721 761.277 1038.662277 761.487375 1036.483536 C 761.97825 1031.985489 760.891313 1026.784622 761.487375 1024.992432 C 762.083438 1023.200241 760.85625 1019.299591 762.504188 1017.507401 C 763.38075 1016.593735 769.341375 1014.30957 771.445125 1014.063583 C 772.91775 1013.993301 775.266938 1013.993301 777.721313 1013.993301 " transform="matrix(0.111408,0,0,0.111159,0,0)"/>
<path style="fill:none;stroke-width:1;stroke-linecap:round;stroke-linejoin:miter;stroke:rgb(100%,100%,100%);stroke-opacity:1;stroke-miterlimit:4;" d="M 741.010875 1015.996338 C 743.289938 1015.996338 745.42875 1015.71521 746.901375 1014.204147 C 748.268813 1012.833649 752.0205 1011.46315 752.511375 1008.511307 C 752.44125 1000.850571 752.826938 997.406754 752.511375 993.998077 C 752.44125 992.276169 754.509938 989.078339 754.509938 985.985931 " transform="matrix(0.111408,0,0,0.111159,0,0)"/>
<path style="fill:none;stroke-width:1;stroke-linecap:round;stroke-linejoin:miter;stroke:rgb(100%,100%,100%);stroke-opacity:1;stroke-miterlimit:4;" d="M 778.282313 1013.887878 C 776.494125 1013.325623 763.2405 1012.798508 762.504188 1011.006317 C 761.662688 1009.038422 762.013313 1003.732132 761.487375 1001.483109 C 761.277 998.214996 761.382188 996.457947 760.9965 993.01413 C 760.926375 991.819336 758.997938 987.496994 758.997938 985.493958 " transform="matrix(0.111408,0,0,0.111159,0,0)"/>
<path style="fill-rule:nonzero;fill:rgb(20.392157%,20.392157%,20.392157%);fill-opacity:1;stroke-width:1;stroke-linecap:butt;stroke-linejoin:miter;stroke:rgb(0%,0%,0%);stroke-opacity:1;stroke-miterlimit:4;" d="M 778.983563 967.009796 L 778.983563 950.704376 L 766.501313 950.704376 L 766.501313 930.006332 L 753.984 930.006332 L 753.984 950.704376 L 733.998375 950.704376 L 733.998375 967.009796 Z M 778.983563 967.009796 " transform="matrix(0.111408,0,0,0.111159,0,0)"/>
<path style=" stroke:none;fill-rule:nonzero;fill:rgb(100%,100%,100%);fill-opacity:1;" d="M 84.015625 107.492188 C 83.949219 109.066406 84.15625 109.457031 84.265625 109.457031 C 84.378906 109.566406 84.621094 109.71875 84.6875 109.457031 C 84.769531 109.128906 85.105469 107.492188 84.6875 107.492188 Z M 84.015625 107.492188 "/>
<path style="fill:none;stroke-width:1;stroke-linecap:butt;stroke-linejoin:miter;stroke:rgb(0%,0%,0%);stroke-opacity:1;stroke-miterlimit:4;" d="M 754.12425 967.009796 C 753.528188 981.171616 755.3865 984.685715 756.36825 984.685715 C 757.385063 985.669662 759.558938 987.040161 760.155 984.685715 C 760.891313 981.733871 763.906688 967.009796 760.155 967.009796 M 754.12425 967.009796 C 754.860563 967.009796 757.139625 967.009796 760.155 967.009796 M 754.12425 967.009796 L 760.155 967.009796 " transform="matrix(0.111408,0,0,0.111159,0,0)"/>
<path style="fill-rule:nonzero;fill:rgb(91.764706%,100%,29.803923%);fill-opacity:1;stroke-width:1;stroke-linecap:butt;stroke-linejoin:miter;stroke:rgb(0%,0%,0%);stroke-opacity:1;stroke-miterlimit:4;" d="M 1265.160188 1337.922958 C 1244.823938 1347.762436 1200.855563 1378.40538 1187.672063 1422.437042 C 1174.348313 1447.738556 1155.66 1521.112946 1187.672063 1611.917267 C 1205.16825 1648.077347 1265.370563 1716.813126 1366.17525 1702.405319 C 1397.836688 1700.261719 1466.664375 1679.106842 1488.683625 1611.917267 L 1435.669125 1596.42009 C 1426.3425 1616.239609 1396.153688 1655.527237 1350.18675 1653.910751 C 1330.83225 1657.42485 1283.077125 1652.715958 1246.68225 1605.908157 C 1238.82825 1590.094711 1224.066938 1553.337234 1227.678375 1532.920319 L 1494.153375 1532.920319 C 1498.325813 1500.414902 1496.783063 1422.929016 1457.162438 1372.923386 C 1431.672 1345.091721 1357.584938 1299.127304 1265.160188 1337.922958 Z M 1265.160188 1337.922958 " transform="matrix(0.111408,0,0,0.111159,0,0)"/>
<path style="fill-rule:nonzero;fill:rgb(49.411765%,81.960785%,37.64706%);fill-opacity:1;stroke-width:1;stroke-linecap:butt;stroke-linejoin:miter;stroke:rgb(0%,0%,0%);stroke-opacity:1;stroke-miterlimit:4;" d="M 1224.592875 1491.8405 L 1441.594688 1491.8405 C 1443.277688 1461.513824 1421.223375 1397.943771 1355.621438 1386.347244 C 1290.0195 1374.715576 1255.272563 1409.153748 1246.12125 1427.813614 C 1237.2855 1443.662201 1220.59575 1478.627487 1224.592875 1491.8405 Z M 1224.592875 1491.8405 " transform="matrix(0.111408,0,0,0.111159,0,0)"/>
<path style=" stroke:none;fill-rule:nonzero;fill:rgb(56.078434%,70.19608%,50.980395%);fill-opacity:1;" d="M 136.417969 165.792969 C 136.0625 162.769531 138.90625 158.496094 140.375 156.734375 L 140.652344 157.289062 L 141.433594 157.289062 C 143.195312 157.570312 146.757812 158.15625 146.890625 158.289062 C 147.027344 158.425781 147.617188 158.496094 147.894531 158.511719 L 153.019531 159.402344 L 154.132812 159.570312 L 156.695312 160.292969 L 158.253906 160.679688 L 159.089844 160.679688 L 159.257812 160.292969 C 160.238281 161.449219 160.484375 164.441406 160.484375 165.792969 Z M 136.417969 165.792969 "/>
<path style="fill:none;stroke-width:8;stroke-linecap:round;stroke-linejoin:miter;stroke:rgb(31.37255%,31.37255%,31.37255%);stroke-opacity:1;stroke-miterlimit:4;" d="M 1264.003125 1411.01622 C 1266.31725 1412.527283 1262.495438 1409.505157 1280.692875 1413.054398 C 1310.005125 1418.747238 1314.107438 1418.220123 1320.488813 1420.504288 C 1327.501313 1422.999298 1329.464813 1421.839645 1334.513813 1422.999298 C 1340.719875 1424.440079 1357.9005 1428.270447 1370.768438 1429.254395 C 1376.9745 1429.711227 1383.110438 1431.362854 1388.33475 1432.909058 C 1394.260313 1434.666107 1401.23775 1436.739426 1407.794438 1437.899078 C 1413.614813 1440.218384 1417.086 1441.378036 1420.346813 1441.975433 C 1422.450563 1442.151138 1422.345375 1441.975433 1425.501 1441.975433 " transform="matrix(0.111408,0,0,0.111159,0,0)"/>
<path style=" stroke:none;fill-rule:nonzero;fill:rgb(85.09804%,67.843139%,88.235295%);fill-opacity:1;" d="M 174.132812 178.683594 L 179.925781 177.183594 C 180.5 179.609375 183.511719 184.296875 190.953125 183.628906 C 198.394531 182.964844 199.511719 178.5 199.140625 176.351562 C 198.992188 175.015625 197.316406 172.113281 191.789062 171.179688 C 186.261719 170.246094 181.984375 168.570312 180.535156 167.847656 C 178.660156 166.808594 174.988281 163.601562 175.300781 159.066406 C 175.226562 156.617188 176.347656 151.148438 181.429688 148.839844 C 186.507812 146.527344 192.347656 146.6875 194.628906 147.058594 C 197.636719 147.78125 203.886719 150.671875 204.824219 156.453125 L 199.140625 158.0625 C 198.230469 155.582031 194.953125 150.960938 189.117188 152.339844 C 186.851562 152.394531 182.140625 153.617188 181.429688 158.0625 C 180.714844 162.511719 188.667969 164.734375 192.734375 165.289062 C 197.285156 166.046875 206.226562 169.324219 205.605469 176.351562 L 205.605469 179.40625 C 204.804688 181.390625 202.484375 185.652344 199.585938 186.855469 C 195.96875 188.355469 194.464844 188.910156 190.953125 189.132812 C 185.960938 189.523438 175.601562 187.976562 174.132812 178.683594 Z M 174.132812 178.683594 "/>
<path style=" stroke:none;fill-rule:nonzero;fill:rgb(100%,72.156864%,47.450981%);fill-opacity:1;" d="M 212.84375 178.683594 L 218.636719 177.183594 C 219.214844 179.609375 222.226562 184.296875 229.667969 183.628906 C 237.109375 182.964844 238.226562 178.5 237.855469 176.351562 C 237.707031 175.015625 236.03125 172.113281 230.503906 171.179688 C 224.976562 170.246094 220.699219 168.570312 219.25 167.847656 C 217.375 166.808594 213.703125 163.601562 214.015625 159.066406 C 213.941406 156.617188 215.0625 151.148438 220.144531 148.839844 C 225.222656 146.527344 231.0625 146.6875 233.34375 147.058594 C 236.351562 147.78125 242.601562 150.671875 243.539062 156.453125 L 237.855469 158.0625 C 236.945312 155.582031 233.667969 150.960938 227.828125 152.339844 C 225.566406 152.394531 220.855469 153.617188 220.144531 158.0625 C 219.429688 162.511719 227.382812 164.734375 231.449219 165.289062 C 236 166.046875 244.941406 169.324219 244.316406 176.351562 L 244.316406 179.40625 C 243.519531 181.390625 241.199219 185.652344 238.300781 186.855469 C 234.679688 188.355469 233.175781 188.910156 229.667969 189.132812 C 224.671875 189.523438 214.316406 187.976562 212.84375 178.683594 Z M 212.84375 178.683594 "/>
<path style="fill:none;stroke-width:1;stroke-linecap:butt;stroke-linejoin:miter;stroke:rgb(0%,0%,0%);stroke-opacity:1;stroke-miterlimit:4;" d="M 1563.016125 1607.454361 L 1615.013813 1593.96022 C 1620.168 1615.782776 1647.201188 1657.951965 1713.99525 1651.942856 C 1780.789313 1645.968887 1790.817188 1605.802734 1787.48625 1586.475189 C 1786.153875 1574.45697 1771.112063 1548.347214 1721.498625 1539.948517 C 1671.885188 1531.54982 1633.49175 1516.474335 1620.483563 1509.973251 C 1603.653563 1500.625748 1570.694813 1471.774994 1573.499813 1430.976303 C 1572.833625 1408.942902 1582.896563 1359.745514 1628.512875 1338.977188 C 1674.094125 1318.173721 1726.512563 1319.614502 1746.989063 1322.952896 C 1773.987188 1329.453979 1830.087188 1355.458313 1838.502188 1407.46698 L 1787.48625 1421.945068 C 1779.316688 1399.630539 1749.89925 1358.058746 1697.515875 1370.463516 C 1677.179625 1370.95549 1634.89425 1381.95462 1628.512875 1421.945068 C 1622.096438 1461.970657 1693.483688 1481.965881 1729.98375 1486.955902 C 1770.831563 1493.773254 1851.089625 1523.256546 1845.514688 1586.475189 L 1845.514688 1613.955444 C 1838.326875 1631.807068 1817.49975 1670.145889 1791.483375 1680.969315 C 1759.0155 1694.463455 1745.516438 1699.453476 1713.99525 1701.456512 C 1669.185375 1704.970612 1576.199625 1691.054779 1563.016125 1607.454361 Z M 1563.016125 1607.454361 " transform="matrix(0.111408,0,0,0.111159,0,0)"/>
<path style="fill:none;stroke-width:1;stroke-linecap:butt;stroke-linejoin:miter;stroke:rgb(0%,0%,0%);stroke-opacity:1;stroke-miterlimit:4;" d="M 1910.4855 1607.454361 L 1962.483188 1593.96022 C 1967.672438 1615.782776 1994.705625 1657.951965 2061.499688 1651.942856 C 2128.29375 1645.968887 2138.321625 1605.802734 2134.990688 1586.475189 C 2133.658313 1574.45697 2118.6165 1548.347214 2069.003063 1539.948517 C 2019.389625 1531.54982 1980.996188 1516.474335 1967.988 1509.973251 C 1951.158 1500.625748 1918.19925 1471.774994 1921.00425 1430.976303 C 1920.338063 1408.942902 1930.401 1359.745514 1976.017313 1338.977188 C 2021.598563 1318.173721 2074.017 1319.614502 2094.4935 1322.952896 C 2121.491625 1329.453979 2177.591625 1355.458313 2186.006625 1407.46698 L 2134.990688 1421.945068 C 2126.821125 1399.630539 2097.403688 1358.058746 2044.98525 1370.463516 C 2024.684063 1370.95549 1982.398688 1381.95462 1976.017313 1421.945068 C 1969.600875 1461.970657 2040.988125 1481.965881 2077.488188 1486.955902 C 2118.336 1493.773254 2198.594063 1523.256546 2192.984063 1586.475189 L 2192.984063 1613.955444 C 2185.831313 1631.807068 2165.004188 1670.145889 2138.987813 1680.969315 C 2106.484875 1694.463455 2092.985813 1699.453476 2061.499688 1701.456512 C 2016.65475 1704.970612 1923.704063 1691.054779 1910.4855 1607.454361 Z M 1910.4855 1607.454361 " transform="matrix(0.111408,0,0,0.111159,0,0)"/>
</g>
</svg>
